<?xml version="1.0" encoding="UTF-8" standalone="no"?>
<svg
   xmlns:dc="http://purl.org/dc/elements/1.1/"
   xmlns:cc="http://creativecommons.org/ns#"
   xmlns:rdf="http://www.w3.org/1999/02/22-rdf-syntax-ns#"
   xmlns:svg="http://www.w3.org/2000/svg"
   xmlns="http://www.w3.org/2000/svg"
   xmlns:sodipodi="http://sodipodi.sourceforge.net/DTD/sodipodi-0.dtd"
   xmlns:inkscape="http://www.inkscape.org/namespaces/inkscape"
   width="98.328529"
   height="115.93532"
   viewBox="0 0 98.328529 115.93532"
   version="1.1"
   id="svg2"
   inkscape:version="0.91 r13725"
   sodipodi:docname="jquery.svg">
  <metadata
     id="metadata34">
    <rdf:RDF>
      <cc:Work
         rdf:about="">
        <dc:format>image/svg+xml</dc:format>
        <dc:type
           rdf:resource="http://purl.org/dc/dcmitype/StillImage" />
        <dc:title></dc:title>
      </cc:Work>
    </rdf:RDF>
  </metadata>
  <sodipodi:namedview
     pagecolor="#ffffff"
     bordercolor="#666666"
     borderopacity="1"
     objecttolerance="10"
     gridtolerance="10"
     guidetolerance="10"
     inkscape:pageopacity="0"
     inkscape:pageshadow="2"
     inkscape:window-width="1920"
     inkscape:window-height="1017"
     id="namedview32"
     showgrid="false"
     fit-margin-top="0"
     fit-margin-left="0"
     fit-margin-right="0"
     fit-margin-bottom="0"
     inkscape:zoom="1.5909903"
     inkscape:cx="356.25586"
     inkscape:cy="68.595639"
     inkscape:window-x="-8"
     inkscape:window-y="-8"
     inkscape:window-maximized="1"
     inkscape:current-layer="svg2" />
  <defs
     id="defs4">
    <clipPath
       clipPathUnits="userSpaceOnUse"
       id="clipPath3370">
      <rect
         style="fill:#ffffff;fill-opacity:1;stroke:#000000;stroke-opacity:1"
         id="rect3372"
         width="108.10877"
         height="139.53574"
         x="-8.799551"
         y="-11.593491" />
    </clipPath>
  </defs>
  <g
     id="g6"
     clip-path="url(#clipPath3370)"
     style="fill:none;fill-rule:evenodd;stroke:none;stroke-width:1"
     transform="translate(-0.98069548,-0.07758354)">
    <g
       id="g8">
      <path
         d="m 489.71819,8.6461303 21.42063,0.1177011 c 0,0 -39.82516,53.9640156 -43.07666,58.3621146 -1.05637,1.424184 -2.66103,2.960184 -3.47414,4.864 -2.05683,4.786514 -4.16859,15.285456 -4.16859,15.285456 l -19.5992,0.0971 c 0,0 3.04944,-10.943265 2.92389,-16.772414 -0.11083,-5.092536 -2.71007,-10.178207 -4.16858,-15.285456 -1.47323,-5.169042 -3.47415,-15.285456 -3.47415,-15.285456 l 20.14946,0 2.77873,11.116874 30.68861,-42.4999237"
         id="path10"
         inkscape:connector-curvature="0"
         style="fill:#1a1918" />
      <path
         d="m 449.15739,20.026851 c 3.9528,2.383448 6.37843,15.528705 6.37843,15.528705 0,0 -20.68402,0.305042 -31.94017,0.305042 l -9.72702,0 -11.81131,51.414804 -18.06419,0 c 0,0 11.24144,-55.874697 13.89561,-66.004843 0.86118,-3.278957 5.89192,-2.716934 14.38896,-2.716934 l 13.56898,0 c 8.76187,0 19.00285,-1.118161 23.31071,1.473226"
         id="path12"
         inkscape:connector-curvature="0"
         style="fill:#1a1918" />
      <path
         d="m 365.05992,45.066789 c 0,0 0.56301,-3.300536 -1.91068,-7.1219 -2.11175,-3.25836 -4.06363,-4.015571 -9.62207,-4.18918 -15.69545,-0.493364 -15.3904,11.137471 -15.3904,11.137471 l 26.92315,0.173609 0,0 z m 17.02253,-13.318866 c 2.30008,8.29597 -2.08429,27.791203 -2.08429,27.791203 0,0 -22.89385,-0.382528 -35.43393,0 -3.89885,0.118682 -8.56668,-0.423724 -9.72702,1.389855 -1.6331,2.542345 0.59635,6.454927 2.48644,8.107647 2.17551,1.903816 6.41275,2.119602 7.93502,2.313809 10.1782,1.292751 31.48113,0.333486 31.48113,0.333486 l -3.68993,16.340843 c 0,0 -30.10403,1.508537 -45.16095,-2.084291 -2.97294,-0.708168 -5.75951,-2.139218 -7.64273,-4.168582 -0.51396,-0.555157 -0.95926,-1.312368 -1.44576,-1.965609 -0.38841,-0.521809 -1.52031,-2.237303 -2.02838,-3.592828 -3.43884,-9.164015 0.40312,-26.721104 4.16858,-36.128368 0.43745,-1.090697 0.98673,-2.472705 1.56444,-3.647755 0.7219,-1.465379 1.33297,-3.11908 1.9097,-3.994973 0.38842,-0.604199 0.86903,-0.993594 1.27216,-1.563463 0.46492,-0.67384 1.00634,-1.327081 1.50755,-1.909702 1.38888,-1.612505 2.96607,-2.752245 4.86302,-4.168582 6.27347,-4.697257 17.62673,-8.345012 31.26535,-6.948291 5.13471,0.527693 12.88926,2.36187 16.67531,7.642728 1.01419,1.410452 1.51442,4.209778 2.08429,6.252873 l 0,0 0,0 z"
         id="path14"
         inkscape:connector-curvature="0"
         style="fill:#1a1918" />
      <path
         d="m 299.22869,18.490851 17.51589,-0.10397 c 0,0 -9.76135,46.307556 -14.73618,68.888521 l -20.14946,0 c -14.08294,0 -26.624,1.743939 -31.95978,-8.338145 -5.17591,-9.788813 -0.23639,-25.887387 2.08429,-36.823786 1.63997,-7.739831 5.09352,-23.559846 5.09352,-23.559846 l 18.14755,-0.166744 c 0,0 -5.12785,24.629947 -7.26118,36.927755 -0.76408,4.404966 -2.34029,8.55295 -0.69444,11.81131 1.56347,3.099464 3.75173,3.321134 10.42146,3.474146 2.11274,0.04904 9.03258,0 9.03258,0 l 12.50575,-52.109241"
         id="path16"
         inkscape:connector-curvature="0"
         style="fill:#1a1918" />
      <path
         d="m 217.24395,51.84049 c 1.83418,-6.51672 4.50894,-13.582712 4.16859,-19.454038 -0.36782,-6.280337 -5.63397,-11.998651 -9.03161,-13.200184 -10.23411,-3.613425 -19.81498,1.437916 -23.62262,5.557456 -4.92677,5.336766 -6.5942,11.569042 -8.33814,20.149456 -1.29864,6.370575 -2.36187,13.096215 0,18.064184 4.18231,8.782467 17.2236,6.86492 31.26535,6.948291 2.08429,-5.5859 3.80763,-11.860352 5.55843,-18.065165 l 0,0 0,0 z m 24.31804,-25.706911 c 2.00092,14.548842 -5.67614,30.606222 -10.96386,44.570482 5.39169,0.486498 10.11641,-0.07552 10.45677,0.326621 0.35408,0.521808 -3.61343,16.668444 -4.99642,16.70964 -4.27941,0.111816 -18.45946,0.229517 -24.37296,0.229517 -19.29416,0 -37.34462,1.257441 -46.54983,-8.337165 -3.73799,-3.897869 -6.32251,-10.582314 -6.94829,-15.285456 -1.04263,-7.851647 0.26385,-16.494835 2.08429,-23.62262 1.64684,-6.43433 3.75859,-12.506728 6.94829,-18.065165 8.10765,-14.1525824 22.21217,-24.65741 45.85539,-22.23276633 4.58544,0.47276628 11.1718,2.48055173 15.28546,4.86301913 0.28444,0.1677242 1.27902,0.9592644 1.50755,1.0985441 5.55844,3.5369195 10.62351,11.9780541 11.69361,19.7453491 l 0,0 0,0 z"
         id="path18"
         inkscape:connector-curvature="0"
         style="fill:#1a1918" />
      <path
         d="m 156.19335,18.574222 c -1.1672,5.315188 -2.33441,11.339525 -3.56438,16.591939 l -19.45404,0 c 1.50755,-5.822284 2.66102,-11.610238 4.16858,-16.67531 6.22541,0 12.01336,0.08337 18.84984,0.08337"
         id="path20"
         inkscape:connector-curvature="0"
         style="fill:#1a1918" />
      <path
         d="m 132.48049,40.02918 18.75862,0 c -2.45211,13.576828 -7.30826,35.476107 -11.11589,50.719387 -2.38345,9.539683 -3.97438,16.501703 -10.42244,21.538333 -0.57673,0.45216 -0.90924,0.23736 -1.38887,0.69541 -1.18878,1.13288 -6.68445,2.44623 -9.72702,2.77873 -4.94737,0.53554 -10.54014,0.0696 -16.6194,-0.0549 1.59092,-5.81541 3.39077,-12.79803 4.80809,-18.009252 14.81955,1.792981 15.19522,-12.214437 18.06418,-25.706912 1.66057,-7.795739 6.69131,-28.833839 7.64273,-31.960766"
         id="path22"
         inkscape:connector-curvature="0"
         style="fill:#1a1918" />
      <g
         transform="translate(0,8.827586)"
         id="g24"
         style="fill:#21609b">
        <path
           d="m 88.708414,66.636506 -0.402146,1.041655 C 81.45508,81.017625 69.317149,89.202759 52.00331,89.563709 43.909395,89.730452 36.197027,87.654008 31.159418,85.395126 20.286774,80.510529 11.142376,71.451464 6.1479234,61.772506 -1.0161533,47.897502 -2.3079234,28.596475 12.588138,14.180046 c 0.229517,0 -1.806713,3.125946 -1.577195,3.125946 l -0.409993,1.333947 c -10.73434464,33.60662 22.336736,62.40613 54.484843,59.112459 7.7261,-0.79154 17.578667,-5.022896 23.622621,-11.115892"
           id="path26"
           inkscape:connector-curvature="0" />
        <path
           d="m 69.254375,52.739923 c 8.088031,0.05591 16.536031,-3.72426 21.53833,-9.031601 C 86.416184,54.81833 73.743693,61.959847 56.748628,59.688215 42.51954,57.784398 28.964291,43.465073 27.567571,29.117303 26.546513,18.675249 30.186421,12.442973 36.183295,4.8836169 34.099004,8.8373946 33.320215,11.886835 33.126008,13.831847 30.84751,36.419678 51.169594,52.622222 69.254375,52.739923"
           id="path28"
           inkscape:connector-curvature="0" />
        <path
           d="M 89.980567,24.684874 C 88.723126,27.568552 81.483525,33.015172 78.286958,33.695877 65.628199,36.392215 57.520552,30.389456 53.274483,23.558866 52.64282,22.537808 51.475617,19.752215 51.266697,19.043065 49.619862,13.443433 50.377073,4.9738544 55.290115,0.58948659 53.810023,4.758069 53.594238,9.6004904 54.373027,12.748015 c 0.471785,1.903816 1.909701,5.225931 3.348598,7.316108 2.61885,3.807632 4.279417,4.732567 7.642727,6.754084 1.514422,0.910222 3.139679,1.639969 3.841962,1.841042 3.18872,0.937686 9.921226,3.411372 20.774253,-3.974375"
           id="path30"
           inkscape:connector-curvature="0" />
      </g>
    </g>
  </g>
</svg>
