<?xml version="1.0" encoding="UTF-8" standalone="no"?>
<!-- Created with Inkscape (http://www.inkscape.org/) -->

<svg
   xmlns:dc="http://purl.org/dc/elements/1.1/"
   xmlns:cc="http://creativecommons.org/ns#"
   xmlns:rdf="http://www.w3.org/1999/02/22-rdf-syntax-ns#"
   xmlns:svg="http://www.w3.org/2000/svg"
   xmlns="http://www.w3.org/2000/svg"
   xmlns:sodipodi="http://sodipodi.sourceforge.net/DTD/sodipodi-0.dtd"
   xmlns:inkscape="http://www.inkscape.org/namespaces/inkscape"
   width="144.33173mm"
   height="124.71451mm"
   viewBox="0 0 511.41163 441.9018"
   id="svg2"
   version="1.1"
   inkscape:version="0.91 r13725"
   sodipodi:docname="mean_stack_image.svg">
  <defs
     id="defs4" />
  <sodipodi:namedview
     id="base"
     pagecolor="#ffffff"
     bordercolor="#666666"
     borderopacity="1.0"
     inkscape:pageopacity="0.0"
     inkscape:pageshadow="2"
     inkscape:zoom="0.80580621"
     inkscape:cx="102.44316"
     inkscape:cy="-69.89462"
     inkscape:document-units="px"
     inkscape:current-layer="layer1"
     showgrid="false"
     inkscape:snap-grids="false"
     inkscape:window-width="1920"
     inkscape:window-height="1017"
     inkscape:window-x="-8"
     inkscape:window-y="-8"
     inkscape:window-maximized="1"
     fit-margin-top="0"
     fit-margin-left="0"
     fit-margin-right="0"
     fit-margin-bottom="0" />
  <metadata
     id="metadata7">
    <rdf:RDF>
      <cc:Work
         rdf:about="">
        <dc:format>image/svg+xml</dc:format>
        <dc:type
           rdf:resource="http://purl.org/dc/dcmitype/StillImage" />
        <dc:title></dc:title>
      </cc:Work>
    </rdf:RDF>
  </metadata>
  <g
     inkscape:label="Layer 1"
     inkscape:groupmode="layer"
     id="layer1"
     transform="translate(-116.34143,-64.024396)">
    <g
       id="g3340"
       style="fill:none;fill-rule:evenodd;stroke:none;stroke-width:1"
       transform="matrix(0.90789504,0,0,0.82092451,139.62611,285.19407)">
      <g
         id="g3342">
        <g
           id="g3344"
           transform="translate(150,31)"
           style="fill:#b52e31">
          <path
             id="path3346"
             d="m 0.6,71.8 0,-63 8.1,0 38.5,50.7 0,-50.7 7.7,0 0,63 -8.1,0 -38.5,-51.2 0,51.2 -7.7,0 0,0 z"
             inkscape:connector-curvature="0" />
          <path
             id="path3348"
             d="M 117.6,69.3 C 112.5,71.2 107,72.2 101.2,72.2 78.4,72.2 67,61.3 67,39.4 67,18.7 78,8.3 100,8.3 c 6.3,0 12.2,0.9 17.6,2.6 l 0,7 c -5.4,-2.1 -11,-3.1 -16.7,-3.1 -17.2,0 -25.8,8.2 -25.8,24.4 0,17.5 8.5,26.2 25.4,26.2 2.7,0 5.7,-0.4 9,-1.1 l 0,-21.1 8.1,0 0,26.1 0,0 z"
             inkscape:connector-curvature="0" />
          <path
             id="path3350"
             d="m 130.6,47.5 0,-38.7 8.1,0 0,38.7 c 0,12.1 6,18.2 18.1,18.2 12,0 18.1,-6.1 18.1,-18.2 l 0,-38.7 8.1,0 0,38.7 c 0,16.5 -8.7,24.8 -26.2,24.8 -17.5,0 -26.2,-8.3 -26.2,-24.8 l 0,0 0,0 z"
             inkscape:connector-curvature="0" />
          <path
             id="path3352"
             d="m 205.6,8.8 0,56.4 33,0 0,6.6 -41.1,0 0,-63 8.1,0 0,0 z"
             inkscape:connector-curvature="0" />
          <path
             id="path3354"
             d="m 250.3,71.8 -8.5,0 31.3,-71.3 31.3,71.3 -9,0 -8.1,-19.8 -20.8,0 2.2,-6.6 15.9,0 -11.8,-28.5 -22.5,54.9 0,0 z"
             inkscape:connector-curvature="0" />
          <path
             id="path3356"
             d="m 313.1,71.8 0,-63 26.9,0 c 12,0 18,5 18,15.1 0,8.2 -5.9,14.3 -17.6,18.2 l 21.6,29.7 -10.7,0 -20,-28.3 0,-5.3 c 12,-1.9 18.1,-6.5 18.1,-13.9 0,-5.8 -3.3,-8.7 -10,-8.7 l -18,0 0,56.2 -8.3,0 0,0 z"
             inkscape:connector-curvature="0" />
        </g>
        <g
           id="g3358">
          <path
             id="path3360"
             d="M 0,23 64.5,0 130.7,22.6 120,107.9 64.5,138.6 9.9,108.3 0,23 0,23 Z"
             inkscape:connector-curvature="0"
             style="fill:#e23237" />
          <path
             id="path3362"
             d="M 130.7,22.6 64.5,0 l 0,138.6 55.5,-30.7 10.7,-85.3 0,0 z"
             inkscape:connector-curvature="0"
             style="fill:#b52e31" />
          <path
             id="path3364"
             d="m 64.6,16.2 0,0 -40.2,89.4 15,-0.3 8.1,-20.2 17.1,0 18.8,0 8.8,20.4 14.3,0.3 -41.9,-89.6 0,0 z m 0.1,28.7 13.6,28.4 -13,0 -0.7,0 -11.8,0 11.9,-28.4 0,0 z"
             inkscape:connector-curvature="0"
             style="fill:#ffffff" />
        </g>
      </g>
    </g>
    <g
       id="g3387"
       style="fill:none;fill-rule:evenodd;stroke:none;stroke-width:1"
       transform="translate(116.34104,63.821495)">
      <g
         id="g3389">
        <path
           id="path3391"
           d="m 476.71344,60.462624 c -0.46106,0.09238 -0.92212,1.10775 -0.92212,1.661194 -0.0924,3.691062 -0.18476,13.473457 -0.18476,20.117369 0,0.184769 0.27629,0.553444 0.55344,0.553444 1.38404,0.09238 4.70643,0.184769 7.56689,0.184769 3.96822,0 6.27524,-0.553444 7.56776,-1.106888 3.32152,-1.661193 4.89033,-5.260735 4.89033,-9.228951 0,-8.950934 -6.27523,-12.365706 -15.59571,-12.365706 -0.64582,-0.09152 -2.49092,-0.09152 -3.87583,0.184769 l 0,0 0,0 z m 23.8093,41.250106 c 0,-9.135705 -6.73716,-14.211671 -18.9181,-14.211671 -0.55344,0 -4.42927,-0.09238 -5.35226,0.09238 -0.27715,0.09239 -0.64582,0.277154 -0.64582,0.554307 0,6.551528 -0.0924,16.979754 0.18476,21.039494 0.18391,1.75358 1.47643,4.24537 3.04524,4.98358 1.66033,0.92298 5.44464,1.10689 8.02795,1.10689 7.29061,0 13.65823,-4.05974 13.65823,-13.56498 l 0,0 0,0 z M 457.88859,55.387521 c 0.92212,0 3.69107,0.27629 10.7969,0.27629 6.7363,0 12.08855,-0.183906 18.64094,-0.183906 8.02796,0 19.10201,2.860466 19.10201,14.856634 0,5.906564 -4.15299,10.612992 -9.59763,12.920014 -0.27629,0.09238 -0.27629,0.27629 0,0.368674 7.75166,1.938348 14.58121,6.737161 14.58121,15.780479 0,8.859414 -5.53703,14.487964 -13.56584,17.995114 -4.8912,2.12226 -10.98167,2.86047 -17.16452,2.86047 -4.70643,0 -17.34843,-0.55344 -24.36188,-0.36868 -0.73821,-0.27715 0.64583,-3.59954 1.29166,-4.15298 1.66119,-0.0924 2.95285,-0.18477 4.70643,-0.73821 2.49179,-0.64583 2.76808,-1.38404 3.13762,-5.16749 0.18477,-3.23 0.18477,-14.673593 0.18477,-22.79393 0,-11.166435 0.0924,-18.733329 0,-22.424391 -0.0924,-2.860466 -1.10775,-3.783447 -3.13762,-4.337754 -1.56881,-0.27629 -4.15299,-0.645828 -6.27524,-0.922118 -0.46192,-0.461923 1.10689,-3.599542 1.66119,-3.968216 l 0,0 0,0 z m -53.24713,57.399259 c 2.2155,1.75271 6.55239,2.49093 10.42822,2.49093 4.98358,0 9.9663,-0.92212 14.76511,-5.25987 4.8912,-4.42928 8.30511,-11.257962 8.30511,-22.147243 0,-10.428223 -3.96822,-18.918098 -12.08855,-23.900816 -4.61405,-2.861329 -10.52061,-4.060601 -17.34929,-4.060601 -2.02987,0 -3.96822,0.09239 -5.16749,0.645828 -0.27715,0.184769 -0.92298,1.015366 -0.92298,1.476425 -0.18477,1.845963 -0.18477,16.056769 -0.18477,24.362739 0,8.58226 0,20.578428 0.18477,21.962468 0,1.38491 0.64583,3.50716 2.02987,4.43014 l 0,0 0,0 z M 383.69349,55.387521 c 1.75358,0 8.48988,0.27629 11.71988,0.27629 5.81418,0 9.9663,-0.27629 20.94796,-0.27629 9.22809,0 16.97976,2.491791 22.51678,7.197356 6.7363,5.814178 10.24345,13.842995 10.24345,23.624526 0,13.934517 -6.36762,21.963337 -12.73524,26.577377 -6.36676,4.70643 -14.67273,7.47451 -26.48413,7.47451 -6.27524,0 -17.07213,-0.18477 -26.02393,-0.27716 l -0.0924,0 c -0.46105,-0.82973 0.73822,-4.05973 1.47643,-4.15212 2.39941,-0.27715 3.04523,-0.36954 4.24537,-0.83059 1.93748,-0.73822 2.30702,-1.75358 2.58417,-5.16749 0.27629,-6.36762 0.18391,-14.026901 0.18391,-22.701546 0,-6.182853 0.0924,-18.272269 -0.0924,-22.148101 -0.27629,-3.22914 -1.66034,-4.059737 -4.42928,-4.614044 -1.38404,-0.27629 -3.23,-0.645828 -5.81331,-0.922118 -0.36954,-0.646691 1.29165,-3.507157 1.75271,-4.0606 l 0,0 0,0 z"
           inkscape:connector-curvature="0"
           style="fill:#8e714e" />
        <path
           id="path3393"
           d="m 272.03346,116.38546 c -2.30703,-0.27716 -3.96822,-0.64583 -5.99895,-1.56881 -0.27629,-0.18477 -0.73821,-1.10689 -0.73821,-1.47643 -0.18477,-3.23 -0.18477,-12.45809 -0.18477,-18.640942 0,-4.983582 -0.82974,-9.320472 -2.95285,-12.365706 -2.49179,-3.507157 -6.09047,-5.537026 -10.70452,-5.537026 -4.0606,0 -9.50524,2.768945 -14.0269,6.644776 -0.0924,0.09152 -0.83059,0.738212 -0.73821,-0.277154 0,-1.015365 0.18477,-3.045234 0.27716,-4.429274 0.0924,-1.29252 -0.64583,-1.938348 -0.64583,-1.938348 -2.95372,1.476425 -11.25882,3.414773 -14.30406,3.691063 -2.21463,0.461922 -2.76808,2.584175 -0.46106,3.322387 l 0.0924,0 c 2.49093,0.738213 4.15212,1.56881 5.44378,2.399407 0.92298,0.738212 0.83059,1.753578 0.83059,2.584175 0.0924,6.921066 0.0924,17.533192 -0.1839,23.347372 -0.0924,2.30702 -0.73822,3.13676 -2.39941,3.50629 l 0.18391,-0.0924 c -1.29166,0.27715 -2.30703,0.55344 -3.87584,0.73821 -0.55344,0.55345 -0.55344,3.50716 0,4.15299 1.01537,0 6.36763,-0.27716 10.79777,-0.27716 6.09046,0 9.22808,0.27716 10.79689,0.27716 0.64583,-0.73821 0.8306,-3.50716 0.46106,-4.15299 -1.75358,-0.0924 -3.04523,-0.27629 -4.2445,-0.64583 -1.6612,-0.36953 -2.12312,-1.19927 -2.2155,-3.13761 -0.18391,-4.8912 -0.18391,-15.226177 -0.18391,-22.239627 0,-1.938347 0.55344,-2.861329 1.10689,-3.414772 2.12225,-1.8451 5.53702,-3.137619 8.58226,-3.137619 2.95285,0 4.89119,0.922981 6.36762,2.123116 2.02987,1.660331 2.6757,4.059737 2.95285,5.813316 0.46106,3.968216 0.27715,11.812266 0.27715,18.640946 0,3.69106 -0.27715,4.61404 -1.66119,5.0751 -0.64583,0.27715 -2.30702,0.64669 -4.24537,0.8306 -0.64583,0.64583 -0.46106,3.50716 0,4.15298 2.67656,0 5.81418,-0.27715 10.42822,-0.27715 5.72093,0 9.41286,0.27715 10.88928,0.27715 0.46106,-0.55344 0.64583,-3.23 0.27629,-3.96821 l 8.7e-4,0 0,0 z M 297.59547,81.1343 c -4.8912,0 -7.93644,3.783447 -7.93644,9.689147 0,5.998084 2.6757,12.919153 10.24346,12.919153 1.29165,0 3.69106,-0.55345 4.79795,-1.8451 1.75358,-1.6612 2.95371,-4.983584 2.95371,-8.489878 0,-7.659278 -3.78431,-12.273322 -10.05868,-12.273322 l 0,0 0,0 z m -0.64669,40.78818 c -1.8451,0 -3.13762,0.55345 -3.96736,1.01537 -3.87669,2.49093 -5.62941,4.89033 -5.62941,7.75166 0,2.6757 1.01451,4.79795 3.23001,6.64391 2.67569,2.30702 6.36676,3.41477 11.07318,3.41477 9.41286,0 13.56584,-5.07596 13.56584,-10.05868 0,-3.50716 -1.75357,-5.81418 -5.35225,-7.10583 -2.58418,-1.10775 -7.29061,-1.6612 -12.92001,-1.6612 l 0,0 0,0 z m 0.64669,23.9932 c -5.62941,0 -9.69001,-1.20013 -13.19631,-3.87583 -3.41477,-2.58417 -4.89119,-6.46001 -4.89119,-9.1357 0,-0.73821 0.18476,-2.76895 1.84596,-4.61405 1.0145,-1.10775 3.22914,-3.23 8.48987,-6.82868 0.18391,-0.0924 0.27629,-0.18477 0.27629,-0.36953 0,-0.18477 -0.18477,-0.36954 -0.36867,-0.46106 -4.33775,-1.6612 -5.62941,-4.33776 -5.99895,-5.81418 l 0,-0.18477 c -0.0915,-0.55344 -0.27629,-1.10689 0.55431,-1.6612 0.64583,-0.46105 1.56881,-1.0145 2.58331,-1.66033 1.56881,-0.92298 3.23,-1.93834 4.24537,-2.76894 0.18477,-0.18477 0.18477,-0.36867 0.18477,-0.55344 0,-0.18477 -0.18477,-0.36954 -0.36954,-0.46106 -6.45914,-2.12312 -9.68915,-6.92193 -9.68915,-14.119288 0,-4.706428 2.12226,-8.951798 5.9057,-11.627494 2.58418,-2.030732 9.04332,-4.521659 13.28869,-4.521659 l 0.27716,0 c 4.33689,0.09152 6.73629,1.014502 10.1502,2.214637 1.84596,0.645828 3.59954,0.922118 5.99895,0.922118 3.59868,0 5.16749,-1.106887 6.45914,-2.398543 0.0924,0.183906 0.27716,0.645828 0.36954,1.8451 0.0924,1.200135 -0.27715,2.95285 -1.20013,4.245369 -0.73822,1.014502 -2.39855,1.753578 -4.05974,1.753578 l -0.46192,0 c -1.6612,-0.184769 -2.39941,-0.369538 -2.39941,-0.369538 l -0.36868,0.184769 c -0.0924,0.184769 0,0.368675 0.0924,0.645828 l 0.0924,0.184769 c 0.18391,0.830597 0.55345,3.321525 0.55345,3.968216 0,7.566894 -3.04524,10.888418 -6.27524,13.380208 -3.13762,2.30702 -6.7363,3.78345 -10.7969,4.15299 -0.0924,0 -0.46106,0 -1.29165,0.0924 -0.46193,0 -1.10775,0.0924 -1.20014,0.0924 l -0.0924,0 c -0.73822,0.1839 -2.58331,1.10688 -2.58331,2.67569 0,1.38404 0.83059,3.04524 4.79794,3.32239 0.8306,0.0924 1.6612,0.0924 2.58418,0.18477 5.25987,0.36867 11.81226,0.83059 14.8575,1.8451 4.2445,1.56881 6.92106,5.35225 6.92106,9.87478 0,6.82868 -4.89119,13.1963 -13.01153,17.16365 -3.96822,1.75358 -7.93643,2.67656 -12.27332,2.67656 l 0,0 0,0 z m 52.60044,-64.320321 c -1.93835,0 -3.69192,0.461059 -4.98358,1.384041 -3.59868,2.214637 -5.44464,6.644775 -5.44464,13.103919 0,12.089421 6.09047,20.579291 14.76511,20.579291 2.58418,0 4.61405,-0.73821 6.36762,-2.21464 2.6757,-2.2155 4.0606,-6.64477 4.0606,-12.82763 0,-11.996165 -5.99894,-20.024981 -14.76511,-20.024981 l 0,0 0,0 z m 1.6612,39.496531 c -15.6881,0 -21.31751,-11.53511 -21.31751,-22.332012 0,-7.566893 3.04524,-13.381072 9.1357,-17.534057 4.33776,-2.675696 9.50525,-4.152121 14.11929,-4.152121 11.99617,0 20.39452,8.582259 20.39452,20.947966 0,8.397494 -3.32239,15.041404 -9.69001,19.102004 -3.04523,2.02987 -8.3051,3.96822 -12.64286,3.96822 l 8.7e-4,0 0,0 z M 187.41099,81.595359 c -1.93834,0 -3.69106,0.461059 -4.98358,1.384041 -3.59868,2.214637 -5.44464,6.644775 -5.44464,13.103919 0,12.089421 6.09047,20.579291 14.76511,20.579291 2.58418,0 4.61405,-0.73821 6.36763,-2.21464 2.67569,-2.2155 4.0606,-6.64477 4.0606,-12.82763 0,-11.996165 -5.90657,-20.024981 -14.76512,-20.024981 l 0,0 0,0 z m 1.6612,39.496531 c -15.6881,0 -21.31751,-11.53511 -21.31751,-22.332012 0,-7.566893 3.04524,-13.381072 9.13571,-17.534057 4.33775,-2.675696 9.50524,-4.152121 14.11928,-4.152121 11.99703,0 20.39452,8.582259 20.39452,20.947966 0,8.397494 -3.32238,15.041404 -9.69001,19.102004 -2.95285,2.02987 -8.21272,3.96822 -12.64199,3.96822 l 0,0 0,0 z M 83.594144,120.1689 c -0.184769,-0.27629 -0.369538,-1.10688 -0.277153,-2.12225 0,-0.73821 0.184769,-1.20013 0.277153,-1.38404 1.937484,-0.27715 2.95285,-0.55431 4.059737,-0.8306 1.845963,-0.46192 2.584176,-1.47642 2.67656,-3.78344 0.277154,-5.53703 0.277154,-16.057636 0.184769,-23.347376 l 0,-0.184769 c 0,-0.830597 0,-1.845963 -1.015366,-2.584176 -1.476425,-0.922118 -3.230003,-1.752715 -5.537025,-2.399406 -0.830597,-0.27629 -1.384041,-0.738212 -1.291656,-1.291656 0,-0.553443 0.553443,-1.199271 1.753578,-1.38404 3.045235,-0.277154 10.980803,-2.214638 14.118422,-3.598678 0.184769,0.183905 0.461922,0.738212 0.461922,1.476425 l -0.09238,1.014502 c -0.09238,1.015366 -0.184769,2.215501 -0.184769,3.414772 0,0.368675 0.369538,0.645828 0.738212,0.645828 0.184769,0 0.369538,-0.09238 0.554302,-0.184769 5.9057,-4.614043 11.25796,-6.275237 14.02604,-6.275237 4.52252,0 8.02882,2.123116 10.70537,6.552391 0.18391,0.277153 0.36868,0.368674 0.64583,0.368674 0.18477,0 0.46106,-0.09152 0.55345,-0.27629 5.44464,-4.152984 10.88928,-6.644775 14.48796,-6.644775 8.58225,0 13.65822,6.367622 13.65822,17.164519 0,3.045235 0,7.013451 -0.0924,10.612991 0,3.22914 -0.0924,6.18285 -0.0924,8.30511 0,0.46106 0.64583,1.93748 1.6612,2.21463 1.29165,0.64583 3.04523,0.92299 5.35225,1.29166 l 0.0924,0 c 0.18477,0.64583 -0.18477,3.04523 -0.55345,3.50716 -0.5543,0 -1.3849,0 -2.30702,-0.0924 -1.75358,-0.0924 -4.24537,-0.18477 -7.01345,-0.18477 -5.72179,0 -8.67464,0.0924 -11.53597,0.27716 -0.18391,-0.73821 -0.27629,-2.95285 0,-3.50716 1.66119,-0.27629 2.49179,-0.55344 3.50715,-0.8306 1.84597,-0.55344 2.30703,-1.38404 2.39941,-3.78344 0,-1.75272 0.36868,-16.7026 -0.18477,-20.302142 -0.55344,-3.691062 -3.32239,-8.027953 -9.41285,-8.027953 -2.30703,0 -5.9057,0.922982 -9.41286,3.598678 -0.18391,0.184769 -0.36868,0.645828 -0.36868,0.922982 l 0,0.09238 c 0.36868,1.937484 0.36868,4.152985 0.36868,7.566894 l 0,5.998091 c 0,4.15298 -0.0924,8.02881 0,10.98166 0,2.03073 1.20013,2.49179 2.2155,2.86133 0.55344,0.0915 0.92212,0.18391 1.38404,0.27629 0.8306,0.18477 1.66119,0.36954 2.95285,0.64583 0.18477,0.36954 0.18477,1.56881 -0.0924,2.58418 -0.0924,0.55344 -0.27716,0.83059 -0.36868,0.92298 -3.13762,-0.0924 -6.36762,-0.18477 -11.07405,-0.18477 -1.38404,0 -3.78345,0.0924 -5.81418,0.0924 -1.66119,0 -3.23,0.0924 -4.15212,0.0924 -0.0924,-0.18477 -0.27715,-0.8306 -0.27715,-1.84597 0,-0.83059 0.18477,-1.47642 0.36954,-1.66119 0.46105,-0.0924 0.82973,-0.18391 1.29165,-0.18391 1.10689,-0.18476 2.02987,-0.36953 2.95285,-0.5543 1.56881,-0.46106 2.12225,-1.29166 2.21464,-3.32153 0.27715,-4.61404 0.55344,-17.810348 -0.0924,-21.132736 -1.10688,-5.352256 -4.15212,-8.028816 -9.04331,-8.028816 -2.86047,0 -6.46001,1.38404 -9.412857,3.599541 -0.461059,0.368675 -0.830597,1.291656 -0.830597,2.122253 l 0,5.444641 c 0,6.643917 0,14.949887 0.09238,18.548567 0.09238,1.10688 0.461059,2.3994 2.584174,2.86046 0.46106,0.0924 1.19927,0.27716 2.12226,0.36954 l 1.66119,0.27629 c 0.18477,0.55431 0.0924,2.76895 -0.27715,3.50716 -0.92299,0 -2.02987,-0.0924 -3.32239,-0.0924 -1.937487,-0.0924 -4.429278,-0.18477 -7.197358,-0.18477 -3.230004,0 -5.537026,0.0924 -7.382989,0.18477 -1.291656,-0.18477 -2.307022,-0.18477 -3.413909,-0.18477 l 0,0 0,0 z"
           inkscape:connector-curvature="0"
           style="fill:#442d22" />
        <g
           id="g3395">
          <path
             id="path3397"
             d="m 35.053436,142.317 -3.783447,-1.29251 c 0,0 0.461923,-19.28678 -6.459143,-20.67082 -4.614044,-5.35225 0.738212,-227.01285 17.348425,-0.73821 0,0 -5.720931,2.86047 -6.736297,7.75166 -1.10775,4.79882 -0.369538,14.94988 -0.369538,14.94988 l 0,0 0,0 z"
             inkscape:connector-curvature="0"
             style="fill:#ffffff" />
          <path
             id="path3399"
             d="m 35.053436,142.317 -3.783447,-1.29251 c 0,0 0.461923,-19.28678 -6.459143,-20.67082 -4.614044,-5.35225 0.738212,-227.01285 17.348425,-0.73821 0,0 -5.720931,2.86047 -6.736297,7.75166 -1.10775,4.79882 -0.369538,14.94988 -0.369538,14.94988 l 0,0 0,0 z"
             inkscape:connector-curvature="0"
             style="fill:#a6a385" />
          <path
             id="path3401"
             d="m 37.084168,123.67606 c 0,0 33.128904,-21.77856 25.377241,-67.089267 C 54.9869,23.642658 37.360458,12.845761 35.422974,8.6927757 33.300721,5.7399258 31.269989,0.57243845 31.269989,0.57243845 L 32.654893,92.207487 c 0,0.09238 -2.861329,28.053803 4.429275,31.468573"
             inkscape:connector-curvature="0"
             style="fill:#ffffff" />
          <path
             id="path3403"
             d="m 37.084168,123.67606 c 0,0 33.128904,-21.77856 25.377241,-67.089267 C 54.9869,23.642658 37.360458,12.845761 35.422974,8.6927757 33.300721,5.7399258 31.269989,0.57243845 31.269989,0.57243845 L 32.654893,92.207487 c 0,0.09238 -2.861329,28.053803 4.429275,31.468573"
             inkscape:connector-curvature="0"
             style="fill:#499d4a" />
          <path
             id="path3405"
             d="m 29.332506,124.87533 c 0,0 -31.0990355,-21.22512 -29.25307261,-58.598527 C 1.8321484,28.90253 23.795481,10.538739 28.039987,7.2163508 c 2.768944,-2.95285 2.861328,-4.0606004 3.046097,-7.01345029 1.937484,4.15298479 1.56881,62.10568649 1.8451,68.93436749 0.830597,26.300223 -1.476425,50.755342 -3.598678,55.738062 l 0,0 0,0 z"
             inkscape:connector-curvature="0"
             style="fill:#ffffff" />
          <path
             id="path3407"
             d="m 29.332506,124.87533 c 0,0 -31.0990355,-21.22512 -29.25307261,-58.598527 C 1.8321484,28.90253 23.795481,10.538739 28.039987,7.2163508 c 2.768944,-2.95285 2.861328,-4.0606004 3.046097,-7.01345029 1.937484,4.15298479 1.56881,62.10568649 1.8451,68.93436749 0.830597,26.300223 -1.476425,50.755342 -3.598678,55.738062 l 0,0 0,0 z"
             inkscape:connector-curvature="0"
             style="fill:#58aa50" />
        </g>
      </g>
    </g>
    <g
       id="g3426"
       transform="matrix(0.71745204,0,0,0.58256106,188.37952,199.86101)">
      <path
         id="path3428"
         d="m 3.3322486,115.62903 0,-56.981454 71.1435084,0 0,-3.332249 -71.1435084,0 0,-51.9830784 75.6420434,0 L 78.974292,0 0,0 l 0,118.96128 79.640742,0 0,-3.33225 -76.3084934,0 0,0 z M 143.78653,33.322486 114.29613,72.143183 85.472177,33.322486 l -4.331923,0 31.156526,41.319883 -34.15555,44.318911 3.998698,0 32.156202,-41.819725 32.32281,41.819725 4.16531,0 -34.32216,-44.318911 31.32314,-41.319883 -3.9987,0 0,0 z m 16.99447,114.962574 0,-53.315974 0.33322,0 c 1.99936,7.775284 5.94248,14.023194 11.82948,18.743894 5.887,4.72071 13.38449,7.08103 22.49268,7.08103 5.887,0 11.10747,-1.19404 15.66157,-3.58217 4.5541,-2.38812 8.35837,-5.63703 11.41295,-9.74682 3.05458,-4.1098 5.38713,-8.885971 6.99772,-14.328671 1.6106,-5.4427 2.41588,-11.163003 2.41588,-17.161081 0,-6.442379 -0.83305,-12.38483 -2.49918,-17.82753 -1.66614,-5.4427 -4.08199,-10.163338 -7.24764,-14.162056 -3.16566,-3.998719 -6.9977,-7.108786 -11.49626,-9.330296 -4.49856,-2.221511 -9.58019,-3.332249 -15.24504,-3.332249 -4.33194,0 -8.35837,0.638675 -12.0794,1.916043 -3.72103,1.277368 -7.02548,3.082318 -9.91344,5.414904 -2.88796,2.332586 -5.38712,5.081663 -7.49756,8.247315 -2.11043,3.165652 -3.721,6.63671 -4.83176,10.413277 l -0.33322,0 0,-23.99219 -3.33225,0 0,114.962574 3.33225,0 0,0 z m 34.65538,-30.65668 c -10.4411,0 -18.82717,-3.58213 -25.15848,-10.74651 -6.3313,-7.164366 -9.4969,-17.466465 -9.4969,-30.906602 0,-5.553775 0.77751,-10.829783 2.33257,-15.82818 1.55506,-4.998398 3.8043,-9.385815 6.7478,-13.162383 2.9435,-3.776567 6.58117,-6.775561 10.91312,-8.997071 4.33194,-2.22151 9.21919,-3.332248 14.66189,-3.332248 5.55378,0 10.41326,1.110738 14.57859,3.332248 4.16533,2.22151 7.60862,5.248273 10.32997,9.080378 2.72135,3.832105 4.77622,8.219522 6.16466,13.162382 1.38844,4.94286 2.08266,10.191099 2.08266,15.744874 0,4.998398 -0.63868,9.968953 -1.91605,14.911813 -1.27737,4.94286 -3.24893,9.385819 -5.91474,13.328999 -2.66581,3.94318 -6.08133,7.16432 -10.24666,9.66352 -4.16534,2.49919 -9.19143,3.74878 -15.07843,3.74878 l 0,0 0,0 z m 54.81549,1.3329 0,-48.484222 c 0,-4.665171 0.66644,-9.219199 1.99935,-13.662219 1.33291,-4.44302 3.38777,-8.358373 6.16466,-11.746176 2.77689,-3.387803 6.30348,-6.053576 10.57989,-7.997397 4.27641,-1.943822 9.35804,-2.749107 15.24504,-2.41588 l 0,-3.332249 c -5.10948,-0.111076 -9.5802,0.444294 -13.4123,1.666124 -3.83211,1.221831 -7.13656,2.887939 -9.91344,4.998373 -2.77689,2.110435 -4.99837,4.581828 -6.6645,7.414253 -1.66613,2.832426 -2.88795,5.859188 -3.66547,9.080378 l -0.33323,0 0,-21.159779 -3.33225,0 0,85.638794 3.33225,0 0,0 z m 38.15425,-42.152949 71.64334,0 c 0.22215,-5.887002 -0.36098,-11.551768 -1.74943,-16.994468 -1.38844,-5.4427 -3.60992,-10.274412 -6.66449,-14.495282 -3.05458,-4.220869 -6.9977,-7.608621 -11.82949,-10.163358 -4.83178,-2.554737 -10.57985,-3.832086 -17.24438,-3.832086 -4.77625,0 -9.44135,0.999665 -13.99545,2.999024 -4.55409,1.999359 -8.55275,4.915047 -11.99609,8.747152 -3.44334,3.832105 -6.22019,8.524975 -8.33062,14.078751 -2.11044,5.553775 -3.16564,11.884984 -3.16564,18.993817 0,6.331304 0.72198,12.245986 2.16596,17.744224 1.44398,5.498237 3.66546,10.274415 6.6645,14.328665 2.99904,4.05426 6.85885,7.1921 11.57956,9.41361 4.72071,2.22151 10.41325,3.27671 17.07778,3.16563 9.77464,0 17.99411,-2.74908 24.65864,-8.24731 6.66453,-5.49824 10.60765,-13.245641 11.82948,-23.242437 l -3.33225,0 c -1.44398,9.441418 -5.13719,16.522377 -11.07973,21.243087 -5.94254,4.72071 -13.41225,7.08103 -22.40937,7.08103 -6.10915,0 -11.27409,-1.0552 -15.49495,-3.16564 -4.22087,-2.11043 -7.66416,-4.99836 -10.32998,-8.66385 -2.66581,-3.66549 -4.63737,-7.9696 -5.91474,-12.91246 -1.27737,-4.94286 -1.97158,-10.302173 -2.08265,-16.078099 l 0,0 0,0 z m 68.31109,-3.332249 -68.31109,0 c 0.33322,-5.998077 1.44396,-11.385159 3.33225,-16.161406 1.88828,-4.776247 4.35967,-8.85821 7.41425,-12.246013 3.05458,-3.387803 6.60894,-5.97027 10.6632,-7.747478 4.05425,-1.777209 8.4139,-2.665799 13.07907,-2.665799 5.55378,0 10.44103,1.027433 14.66189,3.08233 4.22087,2.054897 7.74747,4.859511 10.57989,8.413927 2.83243,3.554417 4.9706,7.691917 6.41458,12.412626 1.44398,4.72071 2.16596,9.691264 2.16596,14.911813 l 0,0 0,0 z m 72.47641,-14.828506 3.33225,0 c 0,-9.552494 -2.77685,-16.494609 -8.33062,-20.826554 -5.55378,-4.331945 -13.1068,-6.497885 -22.65929,-6.497885 -5.33163,0 -9.83012,0.666443 -13.49561,1.999349 -3.66549,1.332906 -6.66448,3.054551 -8.99707,5.164986 -2.33259,2.110434 -3.99869,4.442985 -4.99837,6.997722 -0.99968,2.554736 -1.49951,4.998361 -1.49951,7.330947 0,4.665171 0.83305,8.386145 2.49918,11.163032 1.66613,2.776888 4.27637,4.942828 7.83079,6.497885 2.44366,1.110755 5.2205,2.11042 8.33062,2.999024 3.11011,0.888604 6.72001,1.832732 10.82981,2.832411 3.66549,0.888604 7.27539,1.777195 10.8298,2.665799 3.55442,0.888604 6.69226,2.082648 9.41361,3.582167 2.72135,1.49952 4.94282,3.415544 6.66449,5.748129 1.72167,2.332586 2.5825,5.387117 2.5825,9.163684 0,3.665488 -0.86083,6.775558 -2.5825,9.330298 -1.72167,2.55474 -3.91538,4.63737 -6.58119,6.24796 -2.66581,1.6106 -5.63704,2.77687 -8.91376,3.49887 -3.27673,0.72199 -6.4701,1.08298 -9.58022,1.08298 -10.10787,0 -17.85527,-2.24925 -23.24243,-6.74781 -5.38716,-4.49856 -8.0807,-11.579513 -8.0807,-21.243082 l -3.33225,0 c 0,10.774322 2.91569,18.660572 8.74715,23.658962 5.83146,4.9984 14.46745,7.49756 25.90823,7.49756 3.66549,0 7.3587,-0.41653 11.07973,-1.24959 3.72103,-0.83307 7.05324,-2.19372 9.99674,-4.08201 2.94351,-1.88828 5.33159,-4.3319 7.16434,-7.33094 1.83275,-2.99904 2.7491,-6.66448 2.7491,-10.996423 0,-4.109794 -0.80528,-7.442009 -2.41588,-9.996746 -1.61059,-2.554736 -3.72099,-4.665139 -6.33127,-6.331272 -2.61027,-1.666133 -5.55373,-2.97125 -8.83046,-3.915392 -3.27672,-0.944142 -6.58117,-1.860501 -9.91344,-2.749105 -4.66517,-1.221831 -8.74713,-2.277032 -12.24601,-3.165636 -3.49888,-0.888605 -6.74779,-1.943806 -9.74683,-3.165637 -2.88796,-1.22183 -5.19274,-2.971243 -6.91441,-5.248291 -1.72167,-2.277048 -2.5825,-5.525958 -2.5825,-9.746827 0,-0.777529 0.22215,-2.165952 0.66645,-4.165311 0.44431,-1.999359 1.49951,-4.026457 3.16564,-6.081354 1.66613,-2.054897 4.22083,-3.887615 7.66417,-5.49821 3.44334,-1.610595 8.16398,-2.41588 14.16206,-2.41588 4.10979,0 7.85853,0.444295 11.24634,1.332899 3.3878,0.888604 6.30349,2.304796 8.74715,4.248617 2.44366,1.943821 4.33192,4.415214 5.66482,7.414253 1.33291,2.999039 1.99935,6.664476 1.99935,10.996421 l 0,0 0,0 z m 77.14156,0 3.33225,0 c 0,-9.552494 -2.77685,-16.494609 -8.33063,-20.826554 -5.55377,-4.331945 -13.10679,-6.497885 -22.65929,-6.497885 -5.33162,0 -9.83011,0.666443 -13.4956,1.999349 -3.66549,1.332906 -6.66449,3.054551 -8.99707,5.164986 -2.33259,2.110434 -3.9987,4.442985 -4.99838,6.997722 -0.99968,2.554736 -1.49951,4.998361 -1.49951,7.330947 0,4.665171 0.83305,8.386145 2.49919,11.163032 1.66613,2.776888 4.27637,4.942828 7.83078,6.497885 2.44366,1.110755 5.22051,2.11042 8.33062,2.999024 3.11012,0.888604 6.72002,1.832732 10.82981,2.832411 3.66549,0.888604 7.27539,1.777195 10.82981,2.665799 3.55442,0.888604 6.69225,2.082648 9.4136,3.582167 2.72135,1.49952 4.94283,3.415544 6.6645,5.748129 1.72167,2.332586 2.58249,5.387117 2.58249,9.163684 0,3.665488 -0.86082,6.775558 -2.58249,9.330298 -1.72167,2.55474 -3.91538,4.63737 -6.58119,6.24796 -2.66581,1.6106 -5.63704,2.77687 -8.91377,3.49887 -3.27672,0.72199 -6.4701,1.08298 -9.58021,1.08298 -10.10787,0 -17.85527,-2.24925 -23.24244,-6.74781 -5.38716,-4.49856 -8.0807,-11.579513 -8.0807,-21.243082 l -3.33225,0 c 0,10.774322 2.91569,18.660572 8.74715,23.658962 5.83147,4.9984 14.46746,7.49756 25.90824,7.49756 3.66549,0 7.35869,-0.41653 11.07972,-1.24959 3.72103,-0.83307 7.05325,-2.19372 9.99675,-4.08201 2.9435,-1.88828 5.33159,-4.3319 7.16433,-7.33094 C 511.08364,105.13243 512,101.46699 512,97.135047 c 0,-4.109794 -0.80529,-7.442009 -2.41588,-9.996746 -1.6106,-2.554736 -3.721,-4.665139 -6.33127,-6.331272 -2.61028,-1.666133 -5.55373,-2.97125 -8.83046,-3.915392 -3.27673,-0.944142 -6.58118,-1.860501 -9.91344,-2.749105 -4.66517,-1.221831 -8.74714,-2.277032 -12.24601,-3.165636 -3.49888,-0.888605 -6.74779,-1.943806 -9.74683,-3.165637 -2.88797,-1.22183 -5.19275,-2.971243 -6.91442,-5.248291 -1.72167,-2.277048 -2.58249,-5.525958 -2.58249,-9.746827 0,-0.777529 0.22215,-2.165952 0.66645,-4.165311 0.4443,-1.999359 1.4995,-4.026457 3.16564,-6.081354 1.66613,-2.054897 4.22083,-3.887615 7.66417,-5.49821 3.44334,-1.610595 8.16398,-2.41588 14.16205,-2.41588 4.1098,0 7.85854,0.444295 11.24634,1.332899 3.38781,0.888604 6.30349,2.304796 8.74716,4.248617 2.44366,1.943821 4.33191,4.415214 5.66482,7.414253 1.3329,2.999039 1.99935,6.664476 1.99935,10.996421 l 0,0 0,0 z"
         inkscape:connector-curvature="0"
         style="fill:#222222" />
    </g>
    <g
       id="g3440"
       transform="matrix(0.89317133,0,0,0.90542349,143.01699,374.89353)">
      <g
         id="g3442"
         transform="translate(430,51)"
         style="fill:#83cd29">
        <path
           id="path3444"
           d="m 41.05074,0.61106987 c -1.244748,0 -2.454933,0.25740715 -3.525551,0.86340323 L 3.6366967,21.04489 C 1.4436614,22.307529 0.11114283,24.6942 0.11114283,27.232602 l 0,39.069004 c 0,2.537022 1.33251857,4.920925 3.52555387,6.187485 l 8.8498593,5.10857 c 4.299736,2.119125 5.885522,2.086432 7.842562,2.086432 6.366144,0 10.001059,-3.862741 10.001059,-10.576549 l 0,-38.565236 c 0,-0.545211 -0.471994,-0.93547 -1.007303,-0.93547 l -4.245049,0 c -0.54395,0 -1.007309,0.390259 -1.007309,0.93547 l 0,38.565236 c 0,2.975857 -3.099605,5.968525 -8.130355,3.453603 L 6.7305564,67.165009 C 6.4053382,66.987728 6.1549471,66.674828 6.1549471,66.301606 l 0,-39.069004 c 0,-0.370917 0.2475155,-0.747589 0.5756093,-0.935234 L 40.54709,6.7987812 c 0.316578,-0.1818913 0.693594,-0.1818913 1.007303,0 L 75.370927,26.297368 c 0.322339,0.1934 0.575599,0.553035 0.575599,0.935234 l 0,39.069004 c 0,0.373222 -0.187183,0.755421 -0.503651,0.935242 L 41.554393,86.735435 c -0.290683,0.172679 -0.690725,0.172679 -1.007303,0 l -8.705963,-5.18041 c -0.259024,-0.151958 -0.613012,-0.140449 -0.863403,0 -2.403126,1.362333 -2.854978,1.520735 -5.108452,2.302405 -0.555451,0.1934 -1.398713,0.494329 0.287805,1.439003 l 11.368112,6.691244 c 1.082128,0.626245 2.28801,0.935233 3.525551,0.935233 1.254808,0 2.443426,-0.308988 3.525554,-0.935233 L 78.464778,72.489091 c 2.193044,-1.275537 3.525554,-3.650463 3.525554,-6.187485 l 0,-39.069004 c 0,-2.538402 -1.33251,-4.919772 -3.525554,-6.187712 L 44.576294,1.4744731 C 43.514309,0.86847702 42.295491,0.61106987 41.05074,0.61106987 l 0,0 0,0 z"
           inkscape:connector-curvature="0" />
        <path
           id="path3446"
           d="m 50.116448,28.52816 c -9.649947,0 -15.397316,4.106798 -15.397316,10.936412 0,7.408907 5.704203,9.444457 14.965614,10.360813 11.080319,1.084668 11.943714,2.711543 11.943714,4.892606 0,3.783078 -3.016149,5.396139 -10.144958,5.396139 -8.956346,0 -10.924903,-2.235857 -11.583967,-6.691235 -0.0776,-0.477755 -0.446089,-0.863403 -0.935343,-0.863403 l -4.388958,0 c -0.541063,0 -1.0073,0.465311 -1.0073,1.007301 0,5.703049 3.102483,12.447481 17.915568,12.447481 10.723444,0 16.908268,-4.209253 16.908268,-11.584078 0,-7.311054 -4.996214,-9.273394 -15.397315,-10.648617 -10.510476,-1.390652 -11.512013,-2.071238 -11.512013,-4.532735 0,-2.031874 0.84901,-4.748936 8.634006,-4.748936 6.953254,0 9.523314,1.499551 10.57666,6.187938 0.0921,0.440678 0.480633,0.791328 0.935352,0.791328 l 4.388955,0 c 0.270532,0 0.532433,-0.165772 0.719506,-0.359862 0.184189,-0.207215 0.313701,-0.440678 0.287796,-0.71927 C 66.345511,32.325743 60.960763,28.52816 50.116448,28.52816 l 0,0 0,0 z"
           inkscape:connector-curvature="0" />
      </g>
      <g
         id="g3448">
        <path
           id="path3450"
           d="m 271.82097,0.38261638 c -0.37165,0.004538 -0.74757,0.093242 -1.07925,0.28779505 -0.66224,0.38880647 -1.07926,1.10285737 -1.07926,1.87070407 l 0,55.0417015 c 0,0.540827 -0.25183,1.024101 -0.71949,1.295332 -0.46885,0.271911 -1.04097,0.271911 -1.51096,0 l -8.99375,-5.180411 c -1.34,-0.772684 -2.97672,-0.772221 -4.31701,0 l -35.90309,20.721625 c -1.3423,0.7743 -2.15851,2.263949 -2.15851,3.813239 l 0,41.443248 c 0,1.54813 0.81736,2.96572 2.15851,3.7414 l 35.90309,20.72163 c 1.3423,0.77452 2.9747,0.77452 4.31701,0 l 35.90308,-20.72163 c 1.34115,-0.77568 2.15851,-2.19327 2.15851,-3.7414 l 0,-103.320318 c 0,-1.571691 -0.85765,-3.046654 -2.23046,-3.813357 L 272.90022,0.59846267 c -0.33557,-0.18718296 -0.7076,-0.21987622 -1.07925,-0.21572829 l 0,-1.18e-4 0,0 z M 40.861215,52.114611 c -0.684671,0.02759 -1.327916,0.147347 -1.942653,0.50376 L 3.0154673,73.339995 C 1.6776578,74.11337 0.85696812,75.521984 0.85696812,77.081404 l 0.0717945,55.617286 c 0,0.77361 0.39909908,1.49196 1.07925858,1.87094 0.6666538,0.399 1.4940964,0.399 2.1584992,0 L 25.463744,122.33788 c 1.349074,-0.80146 2.230448,-2.19557 2.230448,-3.7414 l 0,-25.973863 c 0,-1.54929 0.815008,-2.971247 2.158508,-3.741408 l 9.065708,-5.252232 c 0.676629,-0.391185 1.403041,-0.575608 2.158499,-0.575608 0.739955,0 1.500595,0.184197 2.158508,0.575608 l 9.065708,5.252232 c 1.343455,0.770161 2.158499,2.192118 2.158499,3.741408 l 0,25.973863 c 0,1.54583 0.890179,2.94892 2.230457,3.7414 l 21.297224,12.23175 c 0.66885,0.399 1.49513,0.399 2.158499,0 0.66109,-0.37898 1.079249,-1.09733 1.079249,-1.87094 l 0.0718,-55.617286 c 0,-1.55942 -0.811595,-2.968034 -2.158499,-3.741409 L 43.235334,52.618371 c -0.607258,-0.356413 -1.253354,-0.475677 -1.942653,-0.50376 l -0.431702,0 2.36e-4,0 0,0 z m 322.624155,0.50376 c -0.75007,-9.08e-4 -1.48505,0.188798 -2.15851,0.575599 l -35.90308,20.721624 c -1.34115,0.774528 -2.1585,2.192119 -2.1585,3.741409 l 0,41.443237 c 0,1.55827 0.87779,2.97126 2.23045,3.74141 l 35.61529,20.28992 c 1.31524,0.75105 2.92117,0.80722 4.24505,0.0713 l 21.58502,-12.01577 c 0.68497,-0.37991 1.14833,-1.0895 1.1512,-1.87071 0.005,-0.78143 -0.40292,-1.48182 -1.07925,-1.8707 L 350.8941,106.7241 c -0.67633,-0.38565 -1.1512,-1.16708 -1.1512,-1.94276 l 0,-12.951012 c 0,-0.7743 0.48063,-1.483904 1.1512,-1.870477 l 11.22422,-6.475734 c 0.6677,-0.386347 1.48792,-0.386347 2.1585,0 l 11.22421,6.475734 c 0.67058,0.386573 1.07925,1.096177 1.07925,1.870477 l 0,10.217142 c 0,0.77544 0.40868,1.48389 1.07925,1.87047 0.67345,0.38772 1.48793,0.38933 2.15851,0 l 21.51307,-12.519087 c 1.3354,-0.77568 2.1585,-2.196956 2.1585,-3.741399 l 0,-10.001177 c 0,-1.544689 -0.82023,-2.965729 -2.1585,-3.741409 L 365.64387,53.193244 c -0.67203,-0.38956 -1.40842,-0.574674 -2.1585,-0.5756 l 0,7.27e-4 0,0 z M 256.13585,83.55691 c 0.18718,0 0.40752,0.04602 0.5756,0.142745 l 12.30346,7.123173 c 0.33385,0.1934 0.5756,0.549586 0.5756,0.935233 l 0,14.246119 c 0,0.3868 -0.23944,0.74321 -0.5756,0.93547 l -12.30346,7.12294 c -0.335,0.1911 -0.74425,0.1911 -1.07925,0 l -12.30347,-7.12294 c -0.335,-0.1934 -0.57559,-0.54867 -0.57559,-0.93547 l 0,-14.246119 c 0,-0.385647 0.24174,-0.740907 0.57559,-0.935233 l 12.30347,-7.12202 c 0.16808,-0.0967 0.31644,-0.142745 0.50365,-0.142745 l 0,-0.0012 0,0 z"
           inkscape:connector-curvature="0"
           style="fill:#404137" />
        <path
           id="path3452"
           d="m 148.71438,52.402406 c -0.74814,0 -1.4885,0.188799 -2.1585,0.5756 l -35.90309,20.649793 c -1.3423,0.773602 -2.1585,2.265329 -2.1585,3.813239 l 0,41.443242 c 0,1.54975 0.81707,2.96619 2.1585,3.74141 l 35.90309,20.72162 c 1.3423,0.77522 2.9747,0.77522 4.31701,0 l 35.90308,-20.72162 c 1.34,-0.77522 2.15851,-2.19166 2.15851,-3.74141 l 0,-41.443242 c 0,-1.550206 -0.8162,-3.039637 -2.15851,-3.813239 L 150.87289,52.978006 c -0.67001,-0.386801 -1.41037,-0.5756 -2.15851,-0.5756 l 0,0 0,0 z"
           inkscape:connector-curvature="0"
           style="fill:#83cd29" />
        <path
           id="path3454"
           d="m 363.41343,89.385441 c -0.14345,0 -0.3022,0 -0.43171,0.07134 l -6.90721,4.029203 c -0.25902,0.147356 -0.4317,0.421564 -0.4317,0.719497 l 0,7.914509 c 0,0.29793 0.17268,0.571 0.4317,0.71951 l 6.90721,3.95713 c 0.25902,0.14965 0.53531,0.14965 0.79145,0 l 6.90721,-3.95713 c 0.25614,-0.14736 0.4317,-0.42158 0.4317,-0.71951 l 0,-7.914509 c 0,-0.297933 -0.17544,-0.571224 -0.4317,-0.719497 l -6.90721,-4.029203 c -0.12802,-0.07597 -0.21619,-0.07134 -0.35974,-0.07134 l 0,0 0,0 z"
           inkscape:connector-curvature="0"
           style="fill:#83cd29" />
      </g>
    </g>
  </g>
</svg>
